# xmcd
#
# Track frame offsets:
#	150
#	19272
#	33457
#	49587
#	64105
#	76305
#	93992
#	110295
#	125920
#	135742
#	150767
#	163572
#
# Disc length: 2429 seconds
#
# Revision: 1
# Processed by: cddbd v1.5.2PL0 Copyright (c) Steve Scherf et al.
# Submitted via: audiograbber 1.83.01
#
DISCID=91097b0c
DTITLE=ISSI DYE - OUTBACK NIGHTS
DYEAR=1900
DGENRE=COUNTRY
TTITLE0=EVER SINCE OUR LOVE
TTITLE1=PROP ME UP
TTITLE2=ADIOS SO LONG
TTITLE3=JUST ENOUGH ROPE
TTITLE4=AIN'T KNOCKIN' MYSELF
TTITLE5=OUTBACK NIGHTS
TTITLE6=I WONDER
TTITLE7=CHEATIN' HEART
TTITLE8=STILL ROCKIN'
TTITLE9=TRAVELLIN' MAN
TTITLE10=THE OLD MAN FROM THE MOUNTAIN
TTITLE11=LET ME BE THERE
EXTD=www.issidye.com.au
EXTT0=
EXTT1=
EXTT2=
EXTT3=
EXTT4=
EXTT5=
EXTT6=
EXTT7=
EXTT8=
EXTT9=
EXTT10=
EXTT11=
PLAYORDER=
